<mxfile host="65bd71144e">
    <diagram id="dIPLzsFBvjUH1kFoYIID" name="PÃ¡gina-1">
        <mxGraphModel dx="656" dy="645" grid="0" gridSize="10" guides="1" tooltips="1" connect="1" arrows="1" fold="1" page="1" pageScale="1" pageWidth="827" pageHeight="1169" background="#ffffff" math="0" shadow="0">
            <root>
                <mxCell id="0"/>
                <mxCell id="1" parent="0"/>
                <mxCell id="2" value="&lt;font style=&quot;font-size: 22px;&quot;&gt;signupController&lt;/font&gt;" style="rounded=0;whiteSpace=wrap;html=1;sketch=1;hachureGap=4;jiggle=2;curveFitting=1;fontFamily=Architects Daughter;fontSource=https%3A%2F%2Ffonts.googleapis.com%2Fcss%3Ffamily%3DArchitects%2BDaughter;fontSize=22;fillStyle=solid;fillColor=#66ff78;fontColor=#000000;strokeColor=#2D7600;fontStyle=1;gradientColor=#FFCCCC;" parent="1" vertex="1">
                    <mxGeometry x="307" y="273" width="168" height="55" as="geometry"/>
                </mxCell>
                <mxCell id="3" value="&lt;font style=&quot;font-size: 22px;&quot;&gt;Express&lt;/font&gt;" style="rounded=0;whiteSpace=wrap;html=1;sketch=1;hachureGap=4;jiggle=2;curveFitting=1;fontFamily=Architects Daughter;fontSource=https%3A%2F%2Ffonts.googleapis.com%2Fcss%3Ffamily%3DArchitects%2BDaughter;fontSize=22;fillStyle=solid;fillColor=#66ff78;fontColor=#000000;strokeColor=#2D7600;fontStyle=1;gradientColor=#FFCCCC;" parent="1" vertex="1">
                    <mxGeometry x="203" y="446" width="168" height="55" as="geometry"/>
                </mxCell>
                <mxCell id="8" value="&lt;font style=&quot;font-size: 22px;&quot;&gt;Validator&lt;/font&gt;" style="rounded=0;whiteSpace=wrap;html=1;sketch=1;hachureGap=4;jiggle=2;curveFitting=1;fontFamily=Architects Daughter;fontSource=https%3A%2F%2Ffonts.googleapis.com%2Fcss%3Ffamily%3DArchitects%2BDaughter;fontSize=22;fillStyle=solid;fillColor=#66ff78;fontColor=#000000;strokeColor=#2D7600;fontStyle=1;gradientColor=#FFCCCC;" parent="1" vertex="1">
                    <mxGeometry x="47" y="525" width="168" height="55" as="geometry"/>
                </mxCell>
                <mxCell id="9" value="&lt;span style=&quot;font-weight: 700;&quot;&gt;MongoDB&lt;/span&gt;" style="shape=cylinder3;whiteSpace=wrap;html=1;boundedLbl=1;backgroundOutline=1;size=15;sketch=1;hachureGap=4;jiggle=2;fillStyle=solid;curveFitting=1;fontFamily=Architects Daughter;fontSource=https%3A%2F%2Ffonts.googleapis.com%2Fcss%3Ffamily%3DArchitects%2BDaughter;fontSize=22;fontColor=#000000;fillColor=#66ff78;gradientColor=#FFCCCC;strokeColor=#2D7600;" parent="1" vertex="1">
                    <mxGeometry x="451" y="470" width="111" height="113" as="geometry"/>
                </mxCell>
                <mxCell id="10" value="&lt;span style=&quot;font-weight: 700;&quot;&gt;Bcrypt&lt;/span&gt;" style="html=1;whiteSpace=wrap;shape=isoCube2;backgroundOutline=1;isoAngle=15;sketch=1;hachureGap=4;jiggle=2;fillStyle=solid;curveFitting=1;strokeColor=#2D7600;fontFamily=Architects Daughter;fontSource=https%3A%2F%2Ffonts.googleapis.com%2Fcss%3Ffamily%3DArchitects%2BDaughter;fontSize=22;fontColor=#000000;fillColor=#66ff78;gradientColor=#FFCCCC;" parent="1" vertex="1">
                    <mxGeometry x="546" y="389" width="164" height="95" as="geometry"/>
                </mxCell>
                <mxCell id="12" value="" style="endArrow=classic;html=1;hachureGap=4;fontFamily=Architects Daughter;fontSource=https%3A%2F%2Ffonts.googleapis.com%2Fcss%3Ffamily%3DArchitects%2BDaughter;fontSize=22;fontColor=#000000;strokeColor=#003300;rounded=0;jumpStyle=sharp;shadow=1;exitX=0;exitY=1;exitDx=0;exitDy=0;" parent="1" source="2" target="8" edge="1">
                    <mxGeometry width="50" height="50" relative="1" as="geometry">
                        <mxPoint x="208" y="380" as="sourcePoint"/>
                        <mxPoint x="448" y="460" as="targetPoint"/>
                        <Array as="points">
                            <mxPoint x="131" y="331"/>
                        </Array>
                    </mxGeometry>
                </mxCell>
                <mxCell id="13" value="" style="endArrow=classic;html=1;hachureGap=4;fontFamily=Architects Daughter;fontSource=https%3A%2F%2Ffonts.googleapis.com%2Fcss%3Ffamily%3DArchitects%2BDaughter;fontSize=22;fontColor=#000000;strokeColor=#003300;rounded=0;jumpStyle=sharp;shadow=1;exitX=0.25;exitY=1;exitDx=0;exitDy=0;entryX=0.5;entryY=0;entryDx=0;entryDy=0;" parent="1" source="2" target="3" edge="1">
                    <mxGeometry width="50" height="50" relative="1" as="geometry">
                        <mxPoint x="317" y="338" as="sourcePoint"/>
                        <mxPoint x="141" y="535" as="targetPoint"/>
                        <Array as="points">
                            <mxPoint x="287" y="380"/>
                        </Array>
                    </mxGeometry>
                </mxCell>
                <mxCell id="14" value="" style="endArrow=classic;html=1;hachureGap=4;fontFamily=Architects Daughter;fontSource=https%3A%2F%2Ffonts.googleapis.com%2Fcss%3Ffamily%3DArchitects%2BDaughter;fontSize=22;fontColor=#000000;strokeColor=#003300;rounded=0;jumpStyle=sharp;shadow=1;exitX=0.5;exitY=1;exitDx=0;exitDy=0;entryX=0.5;entryY=0;entryDx=0;entryDy=0;entryPerimeter=0;" parent="1" source="2" target="9" edge="1">
                    <mxGeometry width="50" height="50" relative="1" as="geometry">
                        <mxPoint x="358.9999999999999" y="338" as="sourcePoint"/>
                        <mxPoint x="297.0000000000001" y="461" as="targetPoint"/>
                        <Array as="points">
                            <mxPoint x="502" y="387"/>
                        </Array>
                    </mxGeometry>
                </mxCell>
                <mxCell id="15" value="" style="endArrow=classic;html=1;hachureGap=4;fontFamily=Architects Daughter;fontSource=https%3A%2F%2Ffonts.googleapis.com%2Fcss%3Ffamily%3DArchitects%2BDaughter;fontSize=22;fontColor=#000000;strokeColor=#003300;rounded=0;jumpStyle=sharp;shadow=1;exitX=1;exitY=0.5;exitDx=0;exitDy=0;entryX=0.5;entryY=0;entryDx=0;entryDy=0;entryPerimeter=0;" parent="1" source="2" target="10" edge="1">
                    <mxGeometry width="50" height="50" relative="1" as="geometry">
                        <mxPoint x="475" y="194" as="sourcePoint"/>
                        <mxPoint x="637.5" y="313" as="targetPoint"/>
                        <Array as="points">
                            <mxPoint x="628" y="309"/>
                        </Array>
                    </mxGeometry>
                </mxCell>
            </root>
        </mxGraphModel>
    </diagram>
</mxfile>